<svg width="22" height="22" viewBox="0 0 22 22" fill="none" xmlns="http://www.w3.org/2000/svg">
<path fill-rule="evenodd" clip-rule="evenodd" d="M4.58325 3.66665C4.34014 3.66665 4.10698 3.76322 3.93507 3.93513C3.76316 4.10704 3.66659 4.3402 3.66659 4.58331V17.4166C3.66659 17.6598 3.76316 17.8929 3.93507 18.0648C4.10698 18.2367 4.34014 18.3333 4.58325 18.3333H8.24992C8.75618 18.3333 9.16658 18.7437 9.16658 19.25C9.16658 19.7562 8.75618 20.1666 8.24992 20.1666H4.58325C3.85391 20.1666 3.15443 19.8769 2.63871 19.3612C2.12298 18.8455 1.83325 18.146 1.83325 17.4166V4.58331C1.83325 3.85397 2.12298 3.15449 2.63871 2.63877C3.15443 2.12304 3.85391 1.83331 4.58325 1.83331H8.24992C8.75618 1.83331 9.16658 2.24372 9.16658 2.74998C9.16658 3.25624 8.75618 3.66665 8.24992 3.66665H4.58325Z" fill="#6E7585"/>
<path fill-rule="evenodd" clip-rule="evenodd" d="M14.0185 5.76849C14.3765 5.4105 14.9569 5.4105 15.3148 5.76849L19.8982 10.3518C20.2562 10.7098 20.2562 11.2902 19.8982 11.6482L15.3148 16.2315C14.9569 16.5895 14.3765 16.5895 14.0185 16.2315C13.6605 15.8735 13.6605 15.2931 14.0185 14.9352L17.9536 11L14.0185 7.06485C13.6605 6.70687 13.6605 6.12647 14.0185 5.76849Z" fill="#6E7585"/>
<path fill-rule="evenodd" clip-rule="evenodd" d="M7.33325 11C7.33325 10.4937 7.74366 10.0833 8.24992 10.0833H19.2499C19.7562 10.0833 20.1666 10.4937 20.1666 11C20.1666 11.5062 19.7562 11.9166 19.2499 11.9166H8.24992C7.74366 11.9166 7.33325 11.5062 7.33325 11Z" fill="#6E7585"/>
</svg>
