<svg width="22" height="20" viewBox="0 0 22 20" fill="none" xmlns="http://www.w3.org/2000/svg">
<path d="M3.20841 19.1666C2.75008 19.1666 2.29175 19.075 1.83341 18.8C0.55008 18.0666 0.0917464 16.325 0.82508 15.0416L8.61675 2.02497C8.89175 1.6583 9.16675 1.29164 9.53341 1.1083C10.1751 0.741638 10.9084 0.649972 11.6417 0.833305C12.3751 1.01664 12.9251 1.47497 13.3834 2.11664L21.0834 15.0416C21.3584 15.5 21.4501 15.9583 21.4501 16.4166C21.4501 17.15 21.1751 17.8833 20.6251 18.3416C20.1667 18.8916 19.5251 19.1666 18.7917 19.1666H3.20841ZM10.1751 3.0333L2.47508 15.9583C2.20008 16.4166 2.38341 16.9666 2.84175 17.2416C2.93341 17.3333 3.11675 17.3333 3.20841 17.3333H18.7001C18.9751 17.3333 19.1584 17.2416 19.3417 17.0583C19.5251 16.875 19.6167 16.6916 19.6167 16.4166C19.6167 16.2333 19.6167 16.1416 19.5251 15.9583L11.8251 3.0333C11.5501 2.57497 11.0001 2.4833 10.5417 2.66664C10.3584 2.7583 10.2667 2.84997 10.1751 3.0333Z" fill="#F9A530"/>
<path d="M11.0001 11.8333C10.4501 11.8333 10.0834 11.4666 10.0834 10.9166V7.24997C10.0834 6.69997 10.4501 6.3333 11.0001 6.3333C11.5501 6.3333 11.9167 6.69997 11.9167 7.24997V10.9166C11.9167 11.4666 11.5501 11.8333 11.0001 11.8333Z" fill="#F9A530"/>
<path d="M11.0001 15.5C10.7251 15.5 10.5417 15.4083 10.3584 15.225C10.1751 15.0416 10.0834 14.8583 10.0834 14.5833C10.0834 14.4916 10.0834 14.3083 10.1751 14.2166C10.2667 14.125 10.2667 14.0333 10.3584 13.9416C10.4501 13.85 10.5417 13.7583 10.6334 13.7583C10.8167 13.6666 11.0001 13.6666 11.1834 13.6666C11.2751 13.6666 11.2751 13.6666 11.3667 13.7583C11.4584 13.7583 11.4584 13.7583 11.5501 13.85C11.5501 13.85 11.6417 13.9416 11.7334 13.9416C11.8251 14.0333 11.9167 14.125 11.9167 14.2166C11.9167 14.3083 12.0084 14.4916 12.0084 14.5833C12.0084 14.8583 11.9167 15.0416 11.7334 15.225C11.4584 15.4083 11.2751 15.5 11.0001 15.5Z" fill="#F9A530"/>
</svg>
